<svg width="20" height="20" viewBox="0 0 20 20" fill="none" xmlns="http://www.w3.org/2000/svg">
<path d="M1.6665 16.6667H3.33317M3.33317 16.6667H11.6665M3.33317 16.6667V5.16683C3.33317 4.23341 3.33317 3.76635 3.51483 3.40983C3.67461 3.09623 3.9294 2.84144 4.243 2.68166C4.59952 2.5 5.06658 2.5 6 2.5H9C9.93342 2.5 10.3995 2.5 10.756 2.68166C11.0696 2.84144 11.3253 3.09623 11.485 3.40983C11.6665 3.766 11.6665 4.23249 11.6665 5.16409V10M11.6665 16.6667H16.6665M11.6665 16.6667V10M11.6665 10C11.6665 9.22342 11.6665 8.83533 11.7933 8.52908C11.9625 8.12068 12.2868 7.79602 12.6952 7.62687C13.0014 7.5 13.3898 7.5 14.1663 7.5C14.9428 7.5 15.3316 7.5 15.6378 7.62687C16.0463 7.79602 16.3704 8.12068 16.5396 8.52908C16.6664 8.83533 16.6665 9.22342 16.6665 10V16.6667M16.6665 16.6667H18.3332M5.83317 8.33333H9.1665M5.83317 5.83333H9.1665" stroke="url(#paint0_angular_860_1444)" stroke-width="1.5" stroke-linecap="round" stroke-linejoin="round"/>
<defs>
<radialGradient id="paint0_angular_860_1444" cx="0" cy="0" r="1" gradientUnits="userSpaceOnUse" gradientTransform="translate(9.99984 9.58333) rotate(90) scale(7.08333 8.33333)">
<stop offset="0.386094" stop-color="#92FDB0"/>
<stop offset="0.718753" stop-color="#75FFC5"/>
<stop offset="0.998512" stop-color="#7FF0FF"/>
</radialGradient>
</defs>
</svg>
