<svg width="20" height="20" viewBox="0 0 20 20" fill="none" xmlns="http://www.w3.org/2000/svg">
<path d="M1.66675 16.6667H3.33341M3.33341 16.6667H11.6667M3.33341 16.6667V5.16683C3.33341 4.23341 3.33341 3.76635 3.51507 3.40983C3.67486 3.09623 3.92964 2.84144 4.24325 2.68166C4.59976 2.5 5.06682 2.5 6.00025 2.5H9.00025C9.93366 2.5 10.3997 2.5 10.7562 2.68166C11.0698 2.84144 11.3255 3.09623 11.4852 3.40983C11.6667 3.766 11.6667 4.23249 11.6667 5.16409V10M11.6667 16.6667H16.6667M11.6667 16.6667V10M11.6667 10C11.6667 9.22342 11.6667 8.83533 11.7936 8.52908C11.9627 8.12068 12.287 7.79602 12.6954 7.62687C13.0017 7.5 13.39 7.5 14.1665 7.5C14.9431 7.5 15.3318 7.5 15.6381 7.62687C16.0465 7.79602 16.3707 8.12068 16.5398 8.52908C16.6667 8.83533 16.6667 9.22342 16.6667 10V16.6667M16.6667 16.6667H18.3334M5.83341 8.33333H9.16675M5.83341 5.83333H9.16675" stroke="#828282" stroke-width="1.5" stroke-linecap="round" stroke-linejoin="round"/>
</svg>
