<svg width="18" height="18" viewBox="0 0 18 18" fill="none" xmlns="http://www.w3.org/2000/svg">
<path d="M15.667 0.666748H2.33366C1.41318 0.666748 0.666992 1.41294 0.666992 2.33341V15.6667C0.666992 16.5872 1.41318 17.3334 2.33366 17.3334H15.667C16.5875 17.3334 17.3337 16.5872 17.3337 15.6667V2.33341C17.3337 1.41294 16.5875 0.666748 15.667 0.666748Z" fill="url(#paint0_linear_267_224)"/>
<path d="M8.16682 11.9166C8.05715 11.9172 7.94843 11.8962 7.8469 11.8547C7.74537 11.8132 7.65302 11.7521 7.57515 11.6749L5.07515 9.17491C4.99746 9.09721 4.93582 9.00497 4.89377 8.90345C4.85172 8.80193 4.83008 8.69313 4.83008 8.58324C4.83008 8.36133 4.91823 8.1485 5.07515 7.99158C5.23207 7.83466 5.4449 7.7465 5.66682 7.7465C5.88874 7.7465 6.10157 7.83466 6.25849 7.99158L8.16682 9.90824L11.7418 6.32491C11.8987 6.16799 12.1116 6.07983 12.3335 6.07983C12.5554 6.07983 12.7682 6.16799 12.9252 6.32491C13.0821 6.48183 13.1702 6.69466 13.1702 6.91658C13.1702 7.13849 13.0821 7.35132 12.9252 7.50824L8.75849 11.6749C8.68062 11.7521 8.58827 11.8132 8.48674 11.8547C8.38521 11.8962 8.27649 11.9172 8.16682 11.9166Z" fill="white"/>
<defs>
<linearGradient id="paint0_linear_267_224" x1="0.666992" y1="9.00008" x2="17.3337" y2="9.00008" gradientUnits="userSpaceOnUse">
<stop stop-color="#34AD6B"/>
<stop offset="1" stop-color="#0E8042"/>
</linearGradient>
</defs>
</svg>
