<svg width="20" height="20" viewBox="0 0 20 20" fill="none" xmlns="http://www.w3.org/2000/svg">
<g clip-path="url(#clip0_869_1842)">
<path fill-rule="evenodd" clip-rule="evenodd" d="M10 0.5C15.243 0.5 19.5 4.757 19.5 10C19.5 15.243 15.243 19.5 10 19.5C4.757 19.5 0.5 15.243 0.5 10C0.5 4.757 4.757 0.5 10 0.5ZM5.8548 9.846L8.0508 11.3106C8.13499 11.3665 8.23512 11.3934 8.336 11.3873C8.43688 11.3812 8.533 11.3423 8.6098 11.2766L14.5642 6.1726C14.6529 6.09465 14.768 6.05352 14.886 6.05763C15.0041 6.06173 15.1161 6.11075 15.1991 6.19467C15.2822 6.27859 15.3301 6.39108 15.333 6.50913C15.3359 6.62718 15.2936 6.74189 15.2148 6.8298L8.727 14.2444C8.68149 14.2962 8.62499 14.3373 8.56162 14.3645C8.49826 14.3918 8.42961 14.4045 8.36068 14.4019C8.29175 14.3993 8.22428 14.3813 8.16316 14.3493C8.10205 14.3174 8.04884 14.2721 8.0074 14.217L5.2268 10.51C5.16109 10.4225 5.12844 10.3146 5.13465 10.2054C5.14086 10.0961 5.18552 9.99262 5.26073 9.91315C5.33593 9.83368 5.43683 9.78339 5.54556 9.77117C5.65429 9.75896 5.76383 9.7856 5.8548 9.8464V9.846Z" fill="url(#paint0_linear_869_1842)"/>
</g>
<defs>
<linearGradient id="paint0_linear_869_1842" x1="0.5" y1="10" x2="19.5" y2="10" gradientUnits="userSpaceOnUse">
<stop stop-color="#34AD6B"/>
<stop offset="1" stop-color="#0E8042"/>
</linearGradient>
<clipPath id="clip0_869_1842">
<rect width="20" height="20" fill="white"/>
</clipPath>
</defs>
</svg>
