<svg width="20" height="20" viewBox="0 0 20 20" fill="none" xmlns="http://www.w3.org/2000/svg">
<g clip-path="url(#clip0_869_1305)">
<path fill-rule="evenodd" clip-rule="evenodd" d="M9.93872 0.438721C15.1817 0.438721 19.4387 4.69572 19.4387 9.93872C19.4387 15.1817 15.1817 19.4387 9.93872 19.4387C4.69572 19.4387 0.438721 15.1817 0.438721 9.93872C0.438721 4.69572 4.69572 0.438721 9.93872 0.438721ZM5.79352 9.78472L7.98952 11.2493C8.07372 11.3052 8.17384 11.3321 8.27472 11.326C8.3756 11.3199 8.47172 11.281 8.54852 11.2153L14.5029 6.11132C14.5916 6.03337 14.7068 5.99224 14.8248 5.99635C14.9428 6.00045 15.0548 6.04947 15.1379 6.13339C15.2209 6.21731 15.2688 6.3298 15.2717 6.44785C15.2747 6.5659 15.2324 6.68061 15.1535 6.76852L8.66572 14.1831C8.62021 14.235 8.56371 14.276 8.50035 14.3032C8.43698 14.3305 8.36833 14.3433 8.2994 14.3406C8.23047 14.338 8.163 14.3201 8.10189 14.2881C8.04077 14.2561 7.98756 14.2109 7.94612 14.1557L5.16552 10.4487C5.09981 10.3612 5.06716 10.2533 5.07337 10.1441C5.07958 10.0349 5.12424 9.93134 5.19945 9.85187C5.27465 9.77241 5.37555 9.72211 5.48428 9.70989C5.59301 9.69768 5.70255 9.72432 5.79352 9.78512V9.78472Z" fill="url(#paint0_angular_869_1305)"/>
</g>
<defs>
<radialGradient id="paint0_angular_869_1305" cx="0" cy="0" r="1" gradientUnits="userSpaceOnUse" gradientTransform="translate(9.93872 9.93872) rotate(90) scale(9.5)">
<stop offset="0.386094" stop-color="#92FDB0"/>
<stop offset="0.718753" stop-color="#75FFC5"/>
<stop offset="0.998512" stop-color="#7FF0FF"/>
</radialGradient>
<clipPath id="clip0_869_1305">
<rect width="20" height="20" fill="white"/>
</clipPath>
</defs>
</svg>
