<svg width="10" height="13" viewBox="0 0 10 13" fill="none" xmlns="http://www.w3.org/2000/svg">
<path d="M7.99258 0.500001C7.84247 0.499831 7.69382 0.529327 7.55516 0.586793C7.41649 0.644259 7.29055 0.728562 7.18457 0.834858L4.564 3.45537L1.94342 0.834858C1.72846 0.62376 1.43884 0.506092 1.13756 0.507456C0.836283 0.508821 0.547735 0.629109 0.334699 0.842146C0.121662 1.05518 0.0013761 1.34373 1.17337e-05 1.645C-0.00135263 1.94628 0.116316 2.2359 0.327414 2.45086L3.75599 5.87944C3.86209 5.98559 3.98805 6.0698 4.1267 6.12725C4.26535 6.1847 4.41395 6.21427 4.56403 6.21427C4.71411 6.21427 4.86271 6.1847 5.00136 6.12725C5.14001 6.0698 5.26597 5.98559 5.37207 5.87944L8.80065 2.45086C8.96043 2.29103 9.06924 2.08741 9.11332 1.86574C9.15739 1.64407 9.13475 1.41431 9.04826 1.20551C8.96178 0.996705 8.81532 0.818234 8.62741 0.692657C8.4395 0.56708 8.21858 0.500036 7.99258 0.500001ZM7.99258 6.78573C7.84247 6.78556 7.69382 6.81506 7.55516 6.87252C7.41649 6.92999 7.29055 7.01429 7.18457 7.12059L4.564 9.7411L1.94342 7.12059C1.72846 6.90949 1.43884 6.79182 1.13756 6.79319C0.836283 6.79455 0.547735 6.91484 0.334699 7.12787C0.121662 7.34091 0.0013761 7.62946 1.17337e-05 7.93073C-0.00135263 8.23201 0.116316 8.52163 0.327414 8.73659L3.75599 12.1652C3.86209 12.2713 3.98805 12.3555 4.1267 12.413C4.26535 12.4704 4.41395 12.5 4.56403 12.5C4.71411 12.5 4.86271 12.4704 5.00136 12.413C5.14001 12.3555 5.26597 12.2713 5.37207 12.1652L8.80065 8.73659C8.96043 8.57676 9.06924 8.37313 9.11332 8.15147C9.15739 7.9298 9.13475 7.70004 9.04826 7.49124C8.96178 7.28244 8.81532 7.10396 8.62741 6.97839C8.4395 6.85281 8.21858 6.78577 7.99258 6.78573Z" fill="#FD4438"/>
</svg>
