<svg width="260" height="260" viewBox="0 0 260 260" fill="none" xmlns="http://www.w3.org/2000/svg">
<circle opacity="0.4" cx="130" cy="130" r="86.7603" stroke="url(#paint0_linear_1063_1827)"/>
<circle opacity="0.2" cx="130" cy="130" r="129.5" stroke="url(#paint1_linear_1063_1827)"/>
<path fill-rule="evenodd" clip-rule="evenodd" d="M129.595 192.19C164.166 192.19 192.19 164.166 192.19 129.595C192.19 95.0238 164.166 67 129.595 67C95.0238 67 67 95.0238 67 129.595C67 164.166 95.0238 192.19 129.595 192.19ZM120.206 160.836C120.206 155.409 124.331 151.503 129.539 151.503C134.859 151.503 138.984 155.409 138.984 160.836C138.984 166.263 134.859 170.282 129.539 170.282C124.331 170.282 120.206 166.263 120.206 160.836ZM124.412 92.038C123.99 92.0384 123.572 92.1243 123.184 92.2905C122.795 92.4567 122.445 92.6998 122.153 93.0051C121.861 93.3104 121.634 93.6715 121.486 94.0669C121.337 94.4622 121.27 94.8835 121.289 95.3055L123.204 139.122C123.24 139.928 123.585 140.689 124.168 141.247C124.751 141.804 125.527 142.115 126.334 142.114H132.862C133.669 142.115 134.445 141.804 135.028 141.247C135.611 140.689 135.957 139.928 135.992 139.122L137.901 95.3055C137.92 94.883 137.853 94.4612 137.704 94.0654C137.555 93.6697 137.327 93.3082 137.035 93.0028C136.742 92.6975 136.391 92.4545 136.002 92.2887C135.613 92.1229 135.194 92.0376 134.772 92.038H124.412Z" fill="url(#paint2_linear_1063_1827)"/>
<defs>
<linearGradient id="paint0_linear_1063_1827" x1="130" y1="42.7398" x2="130" y2="217.26" gradientUnits="userSpaceOnUse">
<stop stop-color="#FF0000"/>
<stop offset="0.998512" stop-color="#C01717"/>
</linearGradient>
<linearGradient id="paint1_linear_1063_1827" x1="130" y1="0" x2="130" y2="260" gradientUnits="userSpaceOnUse">
<stop stop-color="#FF0000"/>
<stop offset="0.998512" stop-color="#C01717"/>
</linearGradient>
<linearGradient id="paint2_linear_1063_1827" x1="129.595" y1="67" x2="129.595" y2="192.19" gradientUnits="userSpaceOnUse">
<stop stop-color="#FF0000"/>
<stop offset="0.998512" stop-color="#C01717"/>
</linearGradient>
</defs>
</svg>
