<svg width="32" height="32" viewBox="0 0 32 32" fill="none" xmlns="http://www.w3.org/2000/svg">
<rect x="0.5" y="0.5" width="31" height="31" fill="#111114" stroke="#212126"/>
<g clip-path="url(#clip0_359_891)">
<path d="M21.8182 8H10.1818C9.60316 8 9.04821 8.22987 8.63904 8.63904C8.22987 9.04821 8 9.60316 8 10.1818V21.8182C8 22.3968 8.22987 22.9518 8.63904 23.361C9.04821 23.7701 9.60316 24 10.1818 24H21.8182C22.3968 24 22.9518 23.7701 23.361 23.361C23.7701 22.9518 24 22.3968 24 21.8182V10.1818C24 9.60316 23.7701 9.04821 23.361 8.63904C22.9518 8.22987 22.3968 8 21.8182 8ZM13.4545 20.6618C13.4547 20.7062 13.446 20.7501 13.4291 20.7912C13.4122 20.8322 13.3874 20.8695 13.3561 20.9009C13.3248 20.9323 13.2875 20.9572 13.2466 20.9742C13.2056 20.9912 13.1616 21 13.1173 21H11.68C11.6356 21.0001 11.5915 20.9915 11.5504 20.9745C11.5094 20.9575 11.472 20.9326 11.4406 20.9012C11.4092 20.8698 11.3843 20.8325 11.3673 20.7914C11.3504 20.7503 11.3417 20.7063 11.3418 20.6618V14.6364C11.3418 14.5467 11.3774 14.4607 11.4409 14.3972C11.5043 14.3338 11.5903 14.2982 11.68 14.2982H13.1173C13.2068 14.2984 13.2926 14.3342 13.3558 14.3976C13.419 14.4609 13.4545 14.5468 13.4545 14.6364V20.6618ZM12.3982 13.7273C12.1285 13.7273 11.8648 13.6473 11.6406 13.4975C11.4163 13.3476 11.2416 13.1346 11.1383 12.8855C11.0351 12.6363 11.0081 12.3621 11.0607 12.0976C11.1134 11.8331 11.2432 11.5901 11.4339 11.3994C11.6247 11.2087 11.8676 11.0788 12.1321 11.0262C12.3967 10.9736 12.6709 11.0006 12.92 11.1038C13.1692 11.207 13.3822 11.3818 13.532 11.606C13.6818 11.8303 13.7618 12.0939 13.7618 12.3636C13.7618 12.7253 13.6182 13.0721 13.3624 13.3279C13.1067 13.5836 12.7598 13.7273 12.3982 13.7273ZM20.9673 20.6855C20.9674 20.7263 20.9594 20.7668 20.9439 20.8046C20.9283 20.8424 20.9054 20.8767 20.8765 20.9056C20.8476 20.9345 20.8133 20.9574 20.7755 20.9729C20.7377 20.9885 20.6972 20.9965 20.6564 20.9964H19.1109C19.07 20.9965 19.0296 20.9885 18.9918 20.9729C18.954 20.9574 18.9197 20.9345 18.8908 20.9056C18.8619 20.8767 18.839 20.8424 18.8234 20.8046C18.8078 20.7668 18.7999 20.7263 18.8 20.6855V17.8627C18.8 17.4409 18.9236 16.0155 17.6973 16.0155C16.7473 16.0155 16.5536 16.9909 16.5155 17.4291V20.6891C16.5155 20.7708 16.4833 20.8492 16.426 20.9073C16.3687 20.9655 16.2908 20.9988 16.2091 21H14.7164C14.6756 21 14.6352 20.992 14.5975 20.9763C14.5599 20.9607 14.5256 20.9378 14.4968 20.9089C14.468 20.88 14.4452 20.8457 14.4297 20.808C14.4142 20.7703 14.4062 20.7299 14.4064 20.6891V14.61C14.4062 14.5692 14.4142 14.5288 14.4297 14.4911C14.4452 14.4534 14.468 14.4191 14.4968 14.3902C14.5256 14.3613 14.5599 14.3384 14.5975 14.3228C14.6352 14.3071 14.6756 14.2991 14.7164 14.2991H16.2091C16.2915 14.2991 16.3706 14.3318 16.4289 14.3902C16.4872 14.4485 16.52 14.5275 16.52 14.61V15.1355C16.8727 14.6055 17.3955 14.1982 18.5109 14.1982C20.9818 14.1982 20.9655 16.5055 20.9655 17.7727L20.9673 20.6855Z" fill="#828282"/>
</g>
<defs>
<clipPath id="clip0_359_891">
<rect width="16" height="16" fill="white" transform="translate(8 8)"/>
</clipPath>
</defs>
</svg>
