<svg width="32" height="32" viewBox="0 0 32 32" fill="none" xmlns="http://www.w3.org/2000/svg">
<rect x="0.5" y="0.5" width="31" height="31" fill="#111114" stroke="#212126"/>
<g clip-path="url(#clip0_359_896)">
<path d="M17.4062 16C17.4062 16.7766 16.7766 17.4062 16 17.4062C15.2234 17.4062 14.5938 16.7766 14.5938 16C14.5938 15.2234 15.2234 14.5938 16 14.5938C16.7766 14.5938 17.4062 15.2234 17.4062 16Z" fill="#828282"/>
<path d="M18.375 11.75H13.625C12.5911 11.75 11.75 12.5911 11.75 13.625V18.375C11.75 19.4089 12.5911 20.25 13.625 20.25H18.375C19.4089 20.25 20.25 19.4089 20.25 18.375V13.625C20.25 12.5911 19.4089 11.75 18.375 11.75ZM16 18.3438C14.7077 18.3438 13.6562 17.2923 13.6562 16C13.6562 14.7077 14.7077 13.6562 16 13.6562C17.2923 13.6562 18.3438 14.7077 18.3438 16C18.3438 17.2923 17.2923 18.3438 16 18.3438ZM18.6875 13.7812C18.4286 13.7812 18.2188 13.5714 18.2188 13.3125C18.2188 13.0536 18.4286 12.8438 18.6875 12.8438C18.9464 12.8438 19.1562 13.0536 19.1562 13.3125C19.1562 13.5714 18.9464 13.7812 18.6875 13.7812Z" fill="#828282"/>
<path d="M19.7812 8H12.2188C9.89256 8 8 9.89259 8 12.2188V19.7812C8 22.1074 9.89259 24 12.2188 24H19.7812C22.1074 24 24 22.1074 24 19.7812V12.2188C24 9.89256 22.1074 8 19.7812 8ZM21.1875 18.375C21.1875 19.9258 19.9258 21.1875 18.375 21.1875H13.625C12.0742 21.1875 10.8125 19.9258 10.8125 18.375V13.625C10.8125 12.0742 12.0742 10.8125 13.625 10.8125H18.375C19.9258 10.8125 21.1875 12.0742 21.1875 13.625V18.375Z" fill="#828282"/>
</g>
<defs>
<clipPath id="clip0_359_896">
<rect width="16" height="16" fill="white" transform="translate(8 8)"/>
</clipPath>
</defs>
</svg>
