<svg width="30" height="20" viewBox="0 0 30 20" fill="none" xmlns="http://www.w3.org/2000/svg">
<path d="M10.6585 0.0577132C12.361 0.0497506 18.1928 0.0961988 19.4075 0.0577132C33.2533 -0.381554 33.8057 20.3907 19.4075 19.9793C17.2202 19.9893 11.3859 19.9369 10.6585 19.9793C4.16265 20.3589 -0.0268348 15.4526 0.00012939 9.84567C0.0264665 4.23805 4.722 -0.585262 10.6585 0.0577132ZM15.6011 10.0182C15.6908 6.4596 12.6764 3.31904 9.32097 3.37279C4.73705 3.44644 2.74797 7.81854 3.04019 10.6366C3.43211 14.4129 6.29659 16.6483 9.32097 16.6643C12.7925 16.6815 15.5052 13.8057 15.6011 10.0182Z" fill="#828282"/>
</svg>
