<svg width="12" height="14" viewBox="0 0 12 14" fill="none" xmlns="http://www.w3.org/2000/svg">
<path d="M0.652195 1.98884H8.67439" stroke="#828282" stroke-width="1.3" stroke-linecap="round"/>
<path d="M0.652195 6.66844H4.66329" stroke="#828282" stroke-width="1.3" stroke-linecap="round"/>
<path d="M7.33671 6.66844H11.3478" stroke="#828282" stroke-width="1.3" stroke-linecap="round"/>
<path d="M3.32561 11.348H11.3478" stroke="#828282" stroke-width="1.3" stroke-linecap="round"/>
<path d="M10.0114 3.32586C10.7498 3.32586 11.3485 2.72725 11.3485 1.98883C11.3485 1.25041 10.7498 0.651797 10.0114 0.651797C9.273 0.651797 8.67439 1.25041 8.67439 1.98883C8.67439 2.72725 9.273 3.32586 10.0114 3.32586Z" stroke="#828282" stroke-width="1.3" stroke-linecap="round"/>
<path d="M6.00033 8.00547C6.73875 8.00547 7.33736 7.40686 7.33736 6.66843C7.33736 5.93001 6.73875 5.3314 6.00033 5.3314C5.2619 5.3314 4.66329 5.93001 4.66329 6.66843C4.66329 7.40686 5.2619 8.00547 6.00033 8.00547Z" stroke="#828282" stroke-width="1.3" stroke-linecap="round"/>
<path d="M1.98923 12.6851C2.72765 12.6851 3.32626 12.0865 3.32626 11.3481C3.32626 10.6096 2.72765 10.011 1.98923 10.011C1.25081 10.011 0.652195 10.6096 0.652195 11.3481C0.652195 12.0865 1.25081 12.6851 1.98923 12.6851Z" stroke="#828282" stroke-width="1.3" stroke-linecap="round"/>
</svg>
