<svg width="25" height="21" viewBox="0 0 25 21" fill="none" xmlns="http://www.w3.org/2000/svg">
<path fill-rule="evenodd" clip-rule="evenodd" d="M24.2448 0.883943C23.0703 1.45944 21.9193 1.69317 20.7213 2.04669C19.4047 0.560959 17.4527 0.478744 15.5771 1.18109C13.7014 1.88343 12.4729 3.60054 12.4999 5.57015V6.74464C8.6887 6.84213 5.29443 5.10623 3.10401 2.04669C3.10401 2.04669 -1.80771 10.7767 7.80196 14.9661C5.60332 16.4307 3.41055 17.4184 0.755029 17.315C4.64024 19.4326 8.87427 20.1608 12.5399 19.0967C16.7445 17.8753 20.1999 14.7241 21.5259 10.0038C21.9214 8.56824 22.1178 7.08508 22.1096 5.59599C22.1072 5.30354 23.8831 2.34031 24.2448 0.882769V0.883943Z" stroke="#C4C4C4" stroke-width="1.5" stroke-linecap="round" stroke-linejoin="round"/>
</svg>
