<svg width="20" height="20" viewBox="0 0 20 20" fill="none" xmlns="http://www.w3.org/2000/svg">
<path d="M8.125 10C8.125 8.9645 8.9645 8.125 10 8.125C11.0355 8.125 11.875 8.9645 11.875 10C11.875 11.0355 11.0355 11.875 10 11.875C8.9645 11.875 8.125 11.0355 8.125 10Z" fill="#828282"/>
<path fill-rule="evenodd" clip-rule="evenodd" d="M1.66699 9.99992C1.66699 11.3661 2.02113 11.8262 2.7294 12.7463C4.14363 14.5836 6.51542 16.6666 10.0003 16.6666C13.4852 16.6666 15.857 14.5836 17.2712 12.7463C17.9795 11.8262 18.3337 11.3661 18.3337 9.99992C18.3337 8.63375 17.9795 8.17369 17.2712 7.25353C15.857 5.41622 13.4852 3.33325 10.0003 3.33325C6.51542 3.33325 4.14363 5.41622 2.7294 7.25353C2.02113 8.17369 1.66699 8.63375 1.66699 9.99992ZM10.0003 6.87492C8.27443 6.87492 6.87533 8.27403 6.87533 9.99992C6.87533 11.7258 8.27443 13.1249 10.0003 13.1249C11.7262 13.1249 13.1253 11.7258 13.1253 9.99992C13.1253 8.27403 11.7262 6.87492 10.0003 6.87492Z" fill="#828282"/>
</svg>
