<svg width="16" height="16" viewBox="0 0 16 16" fill="none" xmlns="http://www.w3.org/2000/svg">
<rect x="0.5" y="0.5" width="15" height="15" stroke="#212126"/>
<path d="M13.7654 1.78284L8.76855 5.49407L9.6926 3.30449L13.7654 1.78284Z" fill="#E2761B" stroke="#E2761B" stroke-linecap="round" stroke-linejoin="round"/>
<path d="M2.22946 1.78284L7.18614 5.52923L6.3073 3.30449L2.22946 1.78284ZM11.9671 10.3855L10.6362 12.4244L13.4837 13.2078L14.3023 10.4307L11.9671 10.3855ZM1.70215 10.4307L2.51571 13.2078L5.36317 12.4244L4.03234 10.3855L1.70215 10.4307Z" fill="#E4761B" stroke="#E4761B" stroke-linecap="round" stroke-linejoin="round"/>
<path d="M5.20265 6.94039L4.40918 8.14065L7.23655 8.2662L7.13611 5.2279L5.20265 6.94039ZM10.7921 6.94039L8.83354 5.19275L8.76825 8.2662L11.5906 8.14065L10.7921 6.94039ZM5.36335 12.4244L7.06078 11.5958L5.59436 10.4508L5.36335 12.4244ZM8.93398 11.5958L10.6364 12.4244L10.4004 10.4508L8.93398 11.5958Z" fill="#E4761B" stroke="#E4761B" stroke-linecap="round" stroke-linejoin="round"/>
<path d="M10.6364 12.4243L8.9339 11.5957L9.0695 12.7056L9.05443 13.1726L10.6364 12.4243ZM5.36328 12.4243L6.9452 13.1726L6.93516 12.7056L7.06071 11.5957L5.36328 12.4243Z" fill="#D7C1B3" stroke="#D7C1B3" stroke-linecap="round" stroke-linejoin="round"/>
<path d="M6.97088 9.71757L5.55469 9.30075L6.55406 8.84375L6.97088 9.71757ZM9.02487 9.71757L9.44169 8.84375L10.4461 9.30075L9.02487 9.71757Z" fill="#233447" stroke="#233447" stroke-linecap="round" stroke-linejoin="round"/>
<path d="M5.36305 12.4244L5.6041 10.3854L4.03223 10.4306L5.36305 12.4244ZM10.3951 10.3854L10.6361 12.4244L11.9669 10.4306L10.3951 10.3854ZM11.5903 8.14062L8.76795 8.26617L9.02909 9.71752L9.44591 8.8437L10.4503 9.3007L11.5903 8.14062ZM5.55388 9.3007L6.55828 8.8437L6.97008 9.71752L7.23624 8.26617L4.40887 8.14062L5.55388 9.3007Z" fill="#CD6116" stroke="#CD6116" stroke-linecap="round" stroke-linejoin="round"/>
<path d="M4.40918 8.14062L5.59436 10.4507L5.55419 9.3007L4.40918 8.14062ZM10.4506 9.3007L10.4004 10.4507L11.5906 8.14062L10.4506 9.3007ZM7.23655 8.26617L6.97038 9.71752L7.30183 11.43L7.37716 9.17515L7.23655 8.26617ZM8.76825 8.26617L8.63266 9.17013L8.69292 11.43L9.02939 9.71752L8.76825 8.26617Z" fill="#E4751F" stroke="#E4751F" stroke-linecap="round" stroke-linejoin="round"/>
<path d="M9.02989 9.71748L8.69342 11.43L8.93447 11.5957L10.4009 10.4507L10.4511 9.30066L9.02989 9.71748ZM5.55469 9.30066L5.59486 10.4507L7.06128 11.5957L7.30233 11.43L6.97088 9.71748L5.55469 9.30066Z" fill="#F6851B" stroke="#F6851B" stroke-linecap="round" stroke-linejoin="round"/>
<path d="M9.05443 13.1726L9.0695 12.7055L8.94395 12.5951H7.05066L6.93516 12.7055L6.9452 13.1726L5.36328 12.4243L5.9157 12.8763L7.0356 13.6547H8.95901L10.0839 12.8763L10.6364 12.4243L9.05443 13.1726Z" fill="#C0AD9E" stroke="#C0AD9E" stroke-linecap="round" stroke-linejoin="round"/>
<path d="M8.93429 11.5958L8.69324 11.4301H7.30215L7.0611 11.5958L6.93555 12.7056L7.05105 12.5952H8.94434L9.06988 12.7056L8.93429 11.5958Z" fill="#161616" stroke="#161616" stroke-linecap="round" stroke-linejoin="round"/>
<path d="M13.9758 5.73513L14.4027 3.68616L13.7649 1.78284L8.93378 5.36852L10.7919 6.9404L13.4184 7.70876L14.0009 7.0308L13.7498 6.85001L14.1516 6.4834L13.8402 6.24235L14.242 5.93601L13.9758 5.73513ZM1.59668 3.68616L2.02355 5.73513L1.75236 5.93601L2.15412 6.24235L1.84778 6.4834L2.24954 6.85001L1.99844 7.0308L2.57596 7.70876L5.20246 6.9404L7.06058 5.36852L2.22945 1.78284L1.59668 3.68616Z" fill="#763D16" stroke="#763D16" stroke-linecap="round" stroke-linejoin="round"/>
<path d="M13.4184 7.70871L10.7919 6.94035L11.5904 8.1406L10.4002 10.4507L11.9671 10.4306H14.3023L13.4184 7.70871ZM5.20246 6.94035L2.57597 7.70871L1.70215 10.4306H4.03234L5.59418 10.4507L4.40899 8.1406L5.20246 6.94035ZM8.76806 8.26615L8.93379 5.36847L9.69713 3.30444H6.3073L7.06059 5.36847L7.23636 8.26615L7.29662 9.18015L7.30165 11.43H8.69273L8.70278 9.18015L8.76806 8.26615Z" fill="#F6851B" stroke="#F6851B" stroke-linecap="round" stroke-linejoin="round"/>
</svg>
