<svg width="16" height="12" viewBox="0 0 16 12" fill="none" xmlns="http://www.w3.org/2000/svg">
<path fill-rule="evenodd" clip-rule="evenodd" d="M6.39075 7.66889V3.17944C7.98452 3.92938 9.21887 4.65384 10.6788 5.43491C9.47467 6.10268 7.98452 6.85193 6.39075 7.66889ZM15.2728 0.946627C14.9979 0.584419 14.5293 0.302471 14.0305 0.209127C12.5642 -0.0693129 3.41679 -0.0701049 1.95132 0.209127C1.55129 0.284119 1.19507 0.465386 0.889066 0.747018C-0.40029 1.94374 0.00373294 8.36136 0.314518 9.40092C0.445206 9.85089 0.614152 10.1754 0.82692 10.3884C1.10105 10.67 1.47637 10.864 1.90749 10.9509C3.11476 11.2006 9.33443 11.3403 14.005 10.9884C14.4353 10.9134 14.8162 10.7133 15.1166 10.4197C16.3087 9.22774 16.2275 2.44971 15.2728 0.946627Z" fill="#828282"/>
</svg>
