<svg width="32" height="32" viewBox="0 0 32 32" fill="none" xmlns="http://www.w3.org/2000/svg">
<rect x="0.5" y="0.5" width="31" height="31" fill="#111114" stroke="#212126"/>
<path d="M18.4915 14.7873C18.5345 15.2093 18.5592 15.6177 18.5592 16C18.5592 16.7156 18.4727 17.5236 18.3404 18.3406C17.5234 18.4729 16.7154 18.5594 15.9998 18.5594C15.2875 18.5594 14.4797 18.4731 13.6591 18.3404C13.5269 17.5234 13.4404 16.7155 13.4404 16C13.4404 15.6179 13.4651 15.2094 13.5082 14.7873C14.3694 14.9251 15.2284 15.0156 15.9998 15.0156C16.7713 15.0156 17.6303 14.9251 18.4915 14.7873Z" fill="#828282"/>
<path d="M19.6563 14.5745C19.7096 15.0684 19.7405 15.5492 19.7405 16C19.7405 16.6577 19.6747 17.3792 19.5698 18.1115C21.0568 17.8012 22.4311 17.4048 23.1674 17.1791C23.4053 17.1062 23.4988 17.0772 23.6242 17.027C23.6869 17.002 23.7444 16.9765 23.8193 16.9407C23.856 16.6322 23.8749 16.3183 23.8749 16C23.8749 15.1585 23.7429 14.3478 23.4985 13.5876L23.4349 13.6076C22.665 13.8418 21.2238 14.2559 19.6563 14.5745Z" fill="#828282"/>
<path d="M23.0514 12.4896C22.2774 12.7242 20.9343 13.1053 19.495 13.402C19.1634 11.3869 18.5823 9.37713 18.3027 8.46698C20.3817 9.1017 22.0956 10.5735 23.0514 12.4896Z" fill="#828282"/>
<path d="M18.334 13.6167C17.5192 13.7484 16.7137 13.8344 16.0002 13.8344C15.2867 13.8344 14.4813 13.7484 13.6665 13.6167C13.9787 11.71 14.536 9.76229 14.821 8.8325C14.8939 8.59454 14.923 8.50108 14.9731 8.37563C14.9982 8.31296 15.0237 8.25548 15.0595 8.1806C15.3679 8.14388 15.6819 8.125 16.0002 8.125C16.3327 8.125 16.6604 8.14561 16.9822 8.18562C16.989 8.21173 16.9953 8.23509 17.0015 8.25719C17.02 8.3225 17.0488 8.41427 17.0973 8.56828L17.1024 8.58446C17.3453 9.35667 17.9891 11.5105 18.334 13.6167Z" fill="#828282"/>
<path d="M12.505 13.402C12.835 11.3958 13.4124 9.39682 13.6914 8.48636L13.6973 8.46698C11.6183 9.10169 9.90449 10.5735 8.94873 12.4896C9.7226 12.7241 11.0657 13.1053 12.505 13.402Z" fill="#828282"/>
<path d="M8.50138 13.5876C8.25699 14.3479 8.125 15.1585 8.125 16C8.125 16.3292 8.1452 16.6536 8.18442 16.9722L8.30853 17.0136L8.30952 17.0139L8.31074 17.0144L8.31159 17.0146C8.35154 17.0279 9.52229 17.4145 11.0641 17.7981C11.4991 17.9063 11.9598 18.0133 12.43 18.1113C12.3252 17.3791 12.2594 16.6577 12.2594 16C12.2594 15.5491 12.2903 15.0683 12.3435 14.5745C10.7757 14.2558 9.33414 13.8416 8.56448 13.6074L8.55912 13.6058L8.50138 13.5876Z" fill="#828282"/>
<path d="M16.0001 19.7406C16.6578 19.7406 17.3793 19.6748 18.1116 19.5699C17.8013 21.0569 17.4049 22.4312 17.1792 23.1674C17.1063 23.4054 17.0773 23.4989 17.0271 23.6243C17.0021 23.687 16.9766 23.7445 16.9408 23.8194C16.6323 23.8561 16.3184 23.875 16.0001 23.875C15.6818 23.875 15.3678 23.8561 15.0594 23.8194C15.0236 23.7445 14.9981 23.687 14.973 23.6243C14.9229 23.4989 14.8938 23.4054 14.8209 23.1675C14.5953 22.4313 14.1989 21.057 13.8887 19.5702C14.6185 19.6747 15.3402 19.7406 16.0001 19.7406Z" fill="#828282"/>
<path d="M10.7787 18.9444C9.80372 18.7018 8.97333 18.4581 8.4668 18.3026C9.22925 20.8001 11.1997 22.7705 13.6972 23.533L13.6913 23.5136C13.4476 22.7186 12.9765 21.0938 12.6413 19.3588C11.9892 19.2327 11.3552 19.0878 10.7787 18.9444Z" fill="#828282"/>
<path d="M23.5137 18.3086C22.7187 18.5522 21.0937 19.0233 19.3587 19.3586C19.0234 21.0936 18.5523 22.7186 18.3087 23.5136L18.3027 23.533C20.8002 22.7705 22.7706 20.8001 23.5331 18.3026L23.5137 18.3086Z" fill="#828282"/>
<path d="M8.20752 16.9922C8.23478 16.9958 8.257 16.9995 8.26438 17.0012C8.27083 17.0027 8.28095 17.0054 8.28462 17.0064L8.29273 17.0087L8.29709 17.0101L8.30168 17.0115L8.30553 17.0127C8.30337 17.012 8.25961 17.0011 8.20752 16.9922Z" fill="#828282"/>
</svg>
