<svg width="28" height="28" viewBox="0 0 28 28" fill="none" xmlns="http://www.w3.org/2000/svg">
<path fill-rule="evenodd" clip-rule="evenodd" d="M16.6586 2.51111C16.2266 2.3335 15.6788 2.3335 14.5833 2.3335C13.4878 2.3335 12.9401 2.3335 12.5081 2.51111C11.932 2.74793 11.4743 3.20217 11.2356 3.7739C11.1267 4.03489 11.0841 4.33841 11.0674 4.78115C11.0429 5.43179 10.7067 6.03403 10.1385 6.35958C9.57037 6.68512 8.87674 6.67296 8.29673 6.36871C7.90204 6.16168 7.61587 6.04655 7.33365 6.00969C6.71544 5.92891 6.09021 6.09517 5.59552 6.4719C5.22449 6.75444 4.95062 7.22521 4.40288 8.16675C3.85514 9.10829 3.58128 9.57905 3.52024 10.0392C3.43884 10.6528 3.60637 11.2733 3.98597 11.7642C4.15923 11.9884 4.40273 12.1767 4.78065 12.4123C5.33623 12.7588 5.6937 13.349 5.69367 14.0002C5.69363 14.6513 5.33617 15.2414 4.78065 15.5878C4.40267 15.8235 4.15913 16.012 3.98586 16.2361C3.60626 16.727 3.43874 17.3474 3.52012 17.961C3.58116 18.4211 3.85504 18.892 4.40276 19.8335C4.9505 20.775 5.22438 21.2459 5.5954 21.5283C6.09009 21.905 6.71532 22.0713 7.33354 21.9905C7.61574 21.9537 7.90189 21.8385 8.29655 21.6316C8.8766 21.3273 9.57028 21.3152 10.1385 21.6407C10.7067 21.9663 11.0429 22.5685 11.0674 23.2193C11.0841 23.6619 11.1267 23.9655 11.2356 24.2265C11.4743 24.7981 11.932 25.2524 12.5081 25.4893C12.9401 25.6668 13.4878 25.6668 14.5833 25.6668C15.6788 25.6668 16.2266 25.6668 16.6586 25.4893C17.2347 25.2524 17.6924 24.7981 17.931 24.2265C18.0399 23.9655 18.0826 23.6619 18.0993 23.2192C18.1238 22.5685 18.4599 21.9663 19.0281 21.6407C19.5963 21.315 20.29 21.3273 20.87 21.6316C21.2647 21.8385 21.5508 21.9536 21.833 21.9904C22.4512 22.0713 23.0764 21.905 23.5711 21.5283C23.9422 21.2457 24.216 20.775 24.7638 19.8334C25.3115 18.8919 25.5853 18.4211 25.6465 17.961C25.7278 17.3474 25.5603 16.7269 25.1807 16.236C25.0074 16.0118 24.7639 15.8234 24.3859 15.5878C23.8304 15.2414 23.473 14.6512 23.473 14C23.473 13.3489 23.8304 12.7589 24.3859 12.4126C24.764 12.1768 25.0075 11.9885 25.1809 11.7642C25.5604 11.2733 25.7279 10.6528 25.6466 10.0393C25.5855 9.57914 25.3116 9.10836 24.7639 8.16683C24.2161 7.22529 23.9423 6.75452 23.5712 6.47198C23.0765 6.09525 22.4513 5.92899 21.8331 6.00977C21.5509 6.04663 21.2647 6.16175 20.8701 6.36876C20.2901 6.67302 19.5964 6.68519 19.0282 6.35962C18.46 6.03406 18.1238 5.43177 18.0992 4.78109C18.0825 4.33839 18.0399 4.03488 17.931 3.7739C17.6924 3.20217 17.2347 2.74793 16.6586 2.51111ZM14.5833 17.5002C16.5311 17.5002 18.1099 15.9332 18.1099 14.0002C18.1099 12.0671 16.5311 10.5002 14.5833 10.5002C12.6356 10.5002 11.0567 12.0671 11.0567 14.0002C11.0567 15.9332 12.6356 17.5002 14.5833 17.5002Z" fill="#828282"/>
</svg>
