<svg width="20" height="20" viewBox="0 0 20 20" fill="none" xmlns="http://www.w3.org/2000/svg">
<path d="M17.207 2.22849L10.9609 6.86753L12.116 4.13056L17.207 2.22849Z" fill="#E2761B" stroke="#E2761B" stroke-linecap="round" stroke-linejoin="round"/>
<path d="M2.78706 2.22849L8.98292 6.91147L7.88436 4.13056L2.78706 2.22849ZM14.9591 12.9818L13.2955 15.5304L16.8549 16.5097L17.8781 13.0383L14.9591 12.9818ZM2.12793 13.0383L3.14488 16.5097L6.7042 15.5304L5.04067 12.9818L2.12793 13.0383Z" fill="#E4761B" stroke="#E4761B" stroke-linecap="round" stroke-linejoin="round"/>
<path d="M6.50356 8.67546L5.51172 10.1758L9.04593 10.3327L8.92038 6.53485L6.50356 8.67546ZM13.4904 8.67546L11.0422 6.49091L10.9606 10.3327L14.4885 10.1758L13.4904 8.67546ZM6.70444 15.5305L8.82622 14.4947L6.9932 13.0634L6.70444 15.5305ZM11.1677 14.4947L13.2958 15.5305L13.0007 13.0634L11.1677 14.4947Z" fill="#E4761B" stroke="#E4761B" stroke-linecap="round" stroke-linejoin="round"/>
<path d="M13.2954 15.5304L11.1674 14.4947L11.3369 15.882L11.318 16.4658L13.2954 15.5304ZM6.7041 15.5304L8.6815 16.4658L8.66895 15.882L8.82588 14.4947L6.7041 15.5304Z" fill="#D7C1B3" stroke="#D7C1B3" stroke-linecap="round" stroke-linejoin="round"/>
<path d="M8.7136 12.1469L6.94336 11.6259L8.19257 11.0546L8.7136 12.1469ZM11.2811 12.1469L11.8021 11.0546L13.0576 11.6259L11.2811 12.1469Z" fill="#233447" stroke="#233447" stroke-linecap="round" stroke-linejoin="round"/>
<path d="M6.70454 15.5305L7.00586 12.9818L5.04102 13.0383L6.70454 15.5305ZM12.9946 12.9818L13.2959 15.5305L14.9594 13.0383L12.9946 12.9818ZM14.4886 10.1758L10.9607 10.3327L11.2871 12.1469L11.8081 11.0546L13.0636 11.6259L14.4886 10.1758ZM6.94309 11.6259L8.19858 11.0546L8.71333 12.1469L9.04604 10.3327L5.51183 10.1758L6.94309 11.6259Z" fill="#CD6116" stroke="#CD6116" stroke-linecap="round" stroke-linejoin="round"/>
<path d="M5.51172 10.1758L6.9932 13.0634L6.94298 11.6259L5.51172 10.1758ZM13.0635 11.6259L13.0007 13.0634L14.4885 10.1758L13.0635 11.6259ZM9.04593 10.3327L8.71323 12.1469L9.12754 14.2875L9.2217 11.4689L9.04593 10.3327ZM10.9606 10.3327L10.7911 11.4627L10.8664 14.2875L11.287 12.1469L10.9606 10.3327Z" fill="#E4751F" stroke="#E4751F" stroke-linecap="round" stroke-linejoin="round"/>
<path d="M11.2874 12.1469L10.8668 14.2875L11.1681 14.4947L13.0011 13.0634L13.0639 11.6259L11.2874 12.1469ZM6.94336 11.6259L6.99358 13.0634L8.8266 14.4947L9.12792 14.2875L8.7136 12.1469L6.94336 11.6259Z" fill="#F6851B" stroke="#F6851B" stroke-linecap="round" stroke-linejoin="round"/>
<path d="M11.318 16.4658L11.3369 15.882L11.1799 15.7439H8.81333L8.66895 15.882L8.6815 16.4658L6.7041 15.5305L7.39462 16.0954L8.7945 17.0684H11.1988L12.6049 16.0954L13.2954 15.5305L11.318 16.4658Z" fill="#C0AD9E" stroke="#C0AD9E" stroke-linecap="round" stroke-linejoin="round"/>
<path d="M11.1674 14.4947L10.8661 14.2875H9.1272L8.82588 14.4947L8.66895 15.882L8.81333 15.7439H11.1799L11.3369 15.882L11.1674 14.4947Z" fill="#161616" stroke="#161616" stroke-linecap="round" stroke-linejoin="round"/>
<path d="M17.47 7.16885L18.0036 4.60764L17.2064 2.22849L11.1675 6.71059L13.4901 8.67544L16.7732 9.63589L17.5014 8.78843L17.1876 8.56245L17.6898 8.10419L17.3006 7.80287L17.8027 7.41995L17.47 7.16885ZM1.99609 4.60764L2.52968 7.16885L2.1907 7.41995L2.69289 7.80287L2.30997 8.10419L2.81216 8.56245L2.49829 8.78843L3.2202 9.63589L6.50331 8.67544L8.82597 6.71059L2.78705 2.22849L1.99609 4.60764Z" fill="#763D16" stroke="#763D16" stroke-linecap="round" stroke-linejoin="round"/>
<path d="M16.7733 9.63592L13.4901 8.67547L14.4883 10.1758L13.0005 13.0634L14.9591 13.0383H17.8781L16.7733 9.63592ZM6.50332 8.67547L3.22021 9.63592L2.12793 13.0383H5.04067L6.99296 13.0634L5.51148 10.1758L6.50332 8.67547ZM10.9603 10.3327L11.1675 6.71062L12.1217 4.13058H7.88436L8.82598 6.71062L9.0457 10.3327L9.12103 11.4752L9.1273 14.2875H10.8662L10.8787 11.4752L10.9603 10.3327Z" fill="#F6851B" stroke="#F6851B" stroke-linecap="round" stroke-linejoin="round"/>
</svg>
