<svg width="20" height="20" viewBox="0 0 20 20" fill="none" xmlns="http://www.w3.org/2000/svg">
<path d="M17.5 6.66675L14.5327 8.31526C12.8783 9.23433 12.0512 9.69391 11.1752 9.87408C10.3998 10.0335 9.60017 10.0335 8.82483 9.87408C7.94887 9.69391 7.12169 9.23433 5.46733 8.31526L2.5 6.66675M5.16667 15.8334H14.8333C15.7667 15.8334 16.2335 15.8334 16.59 15.6517C16.9036 15.492 17.1586 15.237 17.3183 14.9234C17.5 14.5669 17.5 14.1002 17.5 13.1667V6.83341C17.5 5.9 17.5 5.43328 17.3183 5.07676C17.1586 4.76316 16.9036 4.50819 16.59 4.34841C16.2335 4.16675 15.7667 4.16675 14.8333 4.16675H5.16667C4.23325 4.16675 3.76653 4.16675 3.41002 4.34841C3.09641 4.50819 2.84144 4.76316 2.68166 5.07676C2.5 5.43328 2.5 5.89999 2.5 6.83341V13.1667C2.5 14.1002 2.5 14.5669 2.68166 14.9234C2.84144 15.237 3.09641 15.492 3.41002 15.6517C3.76653 15.8334 4.23324 15.8334 5.16667 15.8334Z" stroke="#828282" stroke-width="1.5" stroke-linecap="round" stroke-linejoin="round"/>
</svg>
