<svg width="20" height="20" viewBox="0 0 20 20" fill="none" xmlns="http://www.w3.org/2000/svg">
<path fill-rule="evenodd" clip-rule="evenodd" d="M19.2597 3.74549C19.5246 2.45402 18.2561 1.38078 17.0263 1.85592L1.95202 7.68009C0.578698 8.21069 0.517506 10.1311 1.85425 10.748L5.13702 12.2632L6.69868 17.7289C6.77979 18.0128 7.00508 18.2327 7.29091 18.3068C7.57673 18.3808 7.88042 18.2981 8.0892 18.0893L10.4948 15.6837L13.8645 18.211C14.8427 18.9446 16.2515 18.4102 16.4972 17.2125L19.2597 3.74549ZM2.55268 9.23475L17.627 3.41058L14.8645 16.8777L10.9166 13.9167C10.5849 13.6678 10.1206 13.7008 9.82735 13.9941L8.79702 15.0244L9.1066 13.3218L15.1725 7.25594C15.4678 6.96073 15.4989 6.49263 15.2455 6.16086C14.9921 5.82908 14.5323 5.73602 14.1698 5.94315L5.79263 10.7301L2.55268 9.23475ZM6.81406 12.066L7.31938 13.8347L7.51338 12.7676C7.54371 12.6008 7.62417 12.4473 7.74402 12.3274L9.59393 10.4776L6.81406 12.066Z" fill="#828282"/>
</svg>
