<svg width="10" height="13" viewBox="0 0 10 13" fill="none" xmlns="http://www.w3.org/2000/svg">
<path d="M7.99258 12.5C7.84247 12.5002 7.69382 12.4707 7.55516 12.4132C7.41649 12.3557 7.29055 12.2714 7.18457 12.1651L4.564 9.54463L1.94342 12.1651C1.72846 12.3762 1.43884 12.4939 1.13756 12.4925C0.836283 12.4912 0.547735 12.3709 0.334699 12.1579C0.121662 11.9448 0.0013761 11.6563 1.17337e-05 11.355C-0.00135263 11.0537 0.116316 10.7641 0.327414 10.5491L3.75599 7.12056C3.86209 7.01441 3.98805 6.9302 4.1267 6.87275C4.26535 6.8153 4.41395 6.78573 4.56403 6.78573C4.71411 6.78573 4.86271 6.8153 5.00136 6.87275C5.14001 6.9302 5.26597 7.01441 5.37207 7.12056L8.80065 10.5491C8.96043 10.709 9.06924 10.9126 9.11332 11.1343C9.15739 11.3559 9.13475 11.5857 9.04826 11.7945C8.96178 12.0033 8.81532 12.1818 8.62741 12.3073C8.4395 12.4329 8.21858 12.5 7.99258 12.5ZM7.99258 6.21427C7.84247 6.21444 7.69382 6.18494 7.55516 6.12748C7.41649 6.07001 7.29055 5.98571 7.18457 5.87941L4.564 3.2589L1.94342 5.87941C1.72846 6.09051 1.43884 6.20818 1.13756 6.20681C0.836283 6.20545 0.547735 6.08516 0.334699 5.87213C0.121662 5.65909 0.0013761 5.37054 1.17337e-05 5.06927C-0.00135263 4.76799 0.116316 4.47837 0.327414 4.26341L3.75599 0.834828C3.86209 0.728678 3.98805 0.644472 4.1267 0.587021C4.26535 0.52957 4.41395 0.5 4.56403 0.5C4.71411 0.5 4.86271 0.52957 5.00136 0.587021C5.14001 0.644472 5.26597 0.728678 5.37207 0.834828L8.80065 4.26341C8.96043 4.42324 9.06924 4.62687 9.11332 4.84853C9.15739 5.0702 9.13475 5.29996 9.04826 5.50876C8.96178 5.71756 8.81532 5.89604 8.62741 6.02161C8.4395 6.14719 8.21858 6.21423 7.99258 6.21427Z" fill="#24CA49"/>
</svg>
